<svg width="29" height="22" viewBox="0 0 29 22" fill="none" xmlns="http://www.w3.org/2000/svg">
<path d="M28.7656 0.179688C28.1641 2.38542 27.5625 4.77734 26.9609 7.35547C26.388 9.90495 25.8581 12.4258 25.3711 14.918C24.8841 17.4102 24.4974 19.6732 24.2109 21.707H16.6055L15.9609 20.7617C16.4766 18.6706 17.1354 16.4362 17.9375 14.0586C18.7682 11.681 19.6562 9.30339 20.6016 6.92578C21.5755 4.51953 22.5495 2.27083 23.5234 0.179688H28.7656ZM12.9531 0.179688C12.3516 2.38542 11.75 4.77734 11.1484 7.35547C10.5755 9.90495 10.0456 12.4258 9.55859 14.918C9.07161 17.4102 8.6849 19.6732 8.39844 21.707H0.835938L0.320312 20.7617C0.835938 18.6706 1.48047 16.4362 2.25391 14.0586C3.05599 11.681 3.92969 9.30339 4.875 6.92578C5.82031 4.51953 6.77995 2.27083 7.75391 0.179688H12.9531Z" fill="#002D69"/>
</svg>
